<svg xmlns="http://www.w3.org/2000/svg" viewBox="0 0 1170.23 280.01"><defs><style>.cls-1{fill:#37afc7;}.cls-2{fill:#2e5945;}.cls-3{fill:#f44e14;}.cls-4{fill:#f9e4ca;}.cls-5{fill:#f7be13;}</style></defs><g id="Layer_4" data-name="Layer 4"><rect class="cls-1" width="1170.23" height="280.01"/></g><g id="Layer_6" data-name="Layer 6"><ellipse class="cls-2" cx="343.51" cy="154.05" rx="45.63" ry="39.07"/><ellipse class="cls-2" cx="366.51" cy="115.19" rx="45.63" ry="39.07" transform="translate(216.23 468.83) rotate(-84.39)"/><ellipse class="cls-2" cx="403.49" cy="148.7" rx="43.38" ry="37.46" transform="translate(216.25 535.88) rotate(-84.39)"/><ellipse class="cls-2" cx="396.24" cy="150.11" rx="43.38" ry="37.46" transform="translate(208.31 529.93) rotate(-84.39)"/><rect class="cls-3" x="378.74" y="140.61" width="5.37" height="47.85" rx="2.68" transform="translate(564.82 537.48) rotate(-139.51)"/><polygon class="cls-3" points="359.73 242.76 382.67 242.76 372.13 148.37 364.99 148.37 359.73 242.76"/><rect class="cls-3" x="355.71" y="149.98" width="5.37" height="47.85" rx="2.68" transform="translate(-21.42 293.67) rotate(-43.36)"/><ellipse class="cls-2" cx="1096.6" cy="154.93" rx="45.63" ry="39.07"/><ellipse class="cls-2" cx="1073.28" cy="116.07" rx="39.07" ry="45.63" transform="translate(-6.04 105.53) rotate(-5.61)"/><ellipse class="cls-2" cx="1036.3" cy="149.58" rx="37.46" ry="43.38" transform="translate(-9.5 102.08) rotate(-5.61)"/><ellipse class="cls-2" cx="1043.55" cy="150.98" rx="37.46" ry="43.38" transform="matrix(1, -0.1, 0.1, 1, -9.6, 102.79)"/><rect class="cls-3" x="1055.69" y="141.49" width="5.37" height="47.85" rx="2.68" transform="translate(146.2 726.95) rotate(-40.49)"/><polygon class="cls-3" points="1080.38 243.64 1057.44 243.64 1067.97 149.25 1075.12 149.25 1080.38 243.64"/><rect class="cls-3" x="1078.72" y="150.86" width="5.37" height="47.85" rx="2.68" transform="translate(1747.79 1044.47) rotate(-136.64)"/><rect class="cls-4" x="421.98" y="82.6" width="148.52" height="6.47" rx="3.23"/><path class="cls-4" d="M439.08,82.55c-.31.56-1.71-5.52,1.06-11.33,3.71-7.77,13.31-15,28-4.6,1.37.33.66-11.43,8.14-18.41,11.31-10.56,35.9-15.23,45.66,18.94,0,0,29.91-14.16,28.85,15l-27.61,4.08Z" transform="translate(0.16 0.14)"/><rect class="cls-4" x="854.69" y="82.89" width="116.13" height="6.73" rx="3.04"/><path class="cls-4" d="M870.11,82.31c-.39,0,2.88-13.75,11.21-22.11,8.49-8.52,13.18-11.21,24.84-11.67,11.91-.46,22.26,9.29,24.08,22.12,0,0,24.23-8.79,26.35,12.11l-48.16,1.52-38.62.6Z" transform="translate(0.16 0.14)"/><rect class="cls-2" x="310.24" y="255.03" width="59.64" height="6.97" rx="3.49"/><rect class="cls-2" x="1063.55" y="254.5" width="59.64" height="6.97" rx="3.49"/><polygon class="cls-3" points="495.15 149.81 595.57 101.08 669.66 101.08 630.8 129.73 630.8 150.14 495.15 149.81"/><polygon class="cls-3" points="925.5 150.31 822.77 99.7 749.8 100.57 789.84 130.22 796.3 150.2 925.5 150.31"/><rect class="cls-4" x="398.68" y="119.58" width="62.58" height="135.31"/><rect class="cls-4" x="974.33" y="118.45" width="63.33" height="135.88"/><rect class="cls-4" x="466.05" y="154.72" width="505.9" height="103.12"/><rect class="cls-2" x="475.45" y="217.51" width="27.49" height="37.69"/><rect class="cls-2" x="517.57" y="217.51" width="27.49" height="37.69"/><rect class="cls-2" x="559.25" y="217.51" width="27.49" height="37.69"/><rect class="cls-2" x="600.04" y="217.51" width="27.49" height="37.69"/><rect class="cls-2" x="642.16" y="217.51" width="27.49" height="37.69"/><rect class="cls-2" x="475.45" y="164.31" width="27.49" height="37.69" rx="13.74"/><rect class="cls-2" x="517.57" y="164.31" width="27.49" height="37.69" rx="13.74"/><rect class="cls-2" x="559.25" y="164.31" width="27.49" height="37.69" rx="13.74"/><rect class="cls-2" x="600.04" y="164.31" width="27.49" height="37.69" rx="13.74"/><rect class="cls-2" x="642.16" y="164.31" width="27.49" height="37.69" rx="13.74"/><rect class="cls-2" x="766.32" y="164.31" width="27.49" height="37.69" rx="13.74"/><rect class="cls-2" x="808.44" y="164.31" width="27.49" height="37.69" rx="13.74"/><rect class="cls-2" x="850.12" y="164.31" width="27.49" height="37.69" rx="13.74"/><rect class="cls-2" x="890.91" y="164.31" width="27.49" height="37.69" rx="13.74"/><rect class="cls-2" x="933.03" y="164.31" width="27.49" height="37.69" rx="13.74"/><rect class="cls-2" x="766.31" y="217.51" width="27.49" height="37.69"/><rect class="cls-2" x="808.43" y="217.51" width="27.49" height="37.69"/><rect class="cls-2" x="850.11" y="217.51" width="27.49" height="37.69"/><rect class="cls-2" x="890.9" y="217.51" width="27.49" height="37.69"/><rect class="cls-2" x="933.02" y="217.51" width="27.49" height="37.69"/><rect class="cls-2" x="766.31" y="183.37" width="27.51" height="18.88"/><rect class="cls-2" x="808.43" y="183.34" width="27.49" height="18.88"/><rect class="cls-2" x="850.12" y="187.79" width="27.49" height="14.36"/><rect class="cls-2" x="890.91" y="188.33" width="27.49" height="14.36"/><rect class="cls-2" x="933.03" y="187.84" width="27.49" height="14.36"/><rect class="cls-2" x="475.43" y="183.43" width="27.51" height="18.88"/><rect class="cls-2" x="517.55" y="183.4" width="27.49" height="18.88"/><rect class="cls-2" x="559.25" y="187.85" width="27.49" height="14.36"/><rect class="cls-1" x="415.23" y="217.08" width="27.49" height="37.69" rx="13.74"/><rect class="cls-1" x="415.21" y="236.2" width="27.51" height="18.88"/><rect class="cls-1" x="994.41" y="216.92" width="27.49" height="37.69" rx="13.74"/><rect class="cls-1" x="994.39" y="236.04" width="27.51" height="18.88"/><rect class="cls-2" x="600.04" y="188.39" width="27.49" height="14.36"/><rect class="cls-2" x="642.16" y="187.9" width="27.49" height="14.36"/><rect class="cls-5" x="389" y="253.81" width="655.26" height="7.63"/><rect class="cls-5" x="389.74" y="200.53" width="655.26" height="7.63"/><rect class="cls-5" x="389" y="150.2" width="655.26" height="7.63"/><rect class="cls-5" x="389" y="113.93" width="81.79" height="7.63"/><rect class="cls-5" x="963.34" y="113.93" width="81.79" height="7.63"/><rect class="cls-4" x="589.62" y="92.72" width="241.43" height="8.07"/><polygon class="cls-4" points="630.8 150.14 630.8 129.73 717.12 87.44 802.81 128.72 802.81 150.28 630.8 150.14"/><polygon class="cls-5" points="635.73 130 610.16 129.73 718.17 77.53 818.46 129.72 789.28 129.36 717.92 91.13 635.73 130"/><rect class="cls-5" x="461" y="154.72" width="5.05" height="100.59"/><rect class="cls-5" x="970.26" y="155.77" width="5.05" height="100.59"/><rect class="cls-1" x="693.15" y="168.3" width="50.55" height="26.16"/><circle class="cls-2" cx="718.52" cy="122.86" r="11.17"/><rect class="cls-2" x="421.58" y="169.61" width="14.21" height="20.53"/><rect class="cls-2" x="999.67" y="170" width="14.21" height="20.53"/><rect class="cls-2" x="408.57" y="128.34" width="6.81" height="18.21" rx="3.41"/><rect class="cls-2" x="425.48" y="128.34" width="6.81" height="18.21" rx="3.41"/><rect class="cls-2" x="442.55" y="128.34" width="6.81" height="18.21" rx="3.41"/><rect class="cls-2" x="986.35" y="127.37" width="6.81" height="18.21" rx="3.41"/><rect class="cls-2" x="1003.26" y="127.37" width="6.81" height="18.21" rx="3.41"/><rect class="cls-2" x="1020.33" y="127.37" width="6.81" height="18.21" rx="3.41"/></g></svg>